<svg width="25" height="27" viewBox="0 0 25 27"  xmlns="http://www.w3.org/2000/svg">
<path d="M9.35961 8.02582C10.8374 6.27208 9.23645 4.01728 8.25123 2.38881C7.63547 1.51194 6.89655 0.259273 5.66502 0.00873917C4.55665 -0.116528 3.57143 1.13614 2.83251 1.76247C1.10837 3.39094 0.123153 5.52048 0 7.90055C0 8.15108 0 8.65215 0 8.27635C0.246305 9.77955 0.369458 11.0322 0.862069 12.4102C1.35468 13.6628 1.97044 14.9155 2.70936 16.0429C4.31034 18.423 6.03448 20.803 8.25123 22.682C10.3448 24.561 12.6847 26.3148 15.5172 26.8158C18.1034 27.3169 20.6897 26.8158 22.7833 25.0621C23.5222 24.4358 24.8768 23.5589 25 22.4315C25 21.3041 24.2611 20.4272 23.5222 19.8009C21.9212 18.423 19.7044 16.0429 17.6108 17.7966C16.7488 18.423 15.8867 19.8009 14.7783 19.9262C13.67 20.0514 12.6847 19.2998 11.8227 18.6735C9.85222 17.2956 8.12808 15.2913 7.14286 13.287C6.65025 12.4102 6.28079 11.1575 6.89655 10.2806C7.63547 9.27849 8.62069 8.90268 9.35961 8.02582Z" fill="#C4C0B7"/>
</svg>
